<svg xmlns="http://www.w3.org/2000/svg" xmlns:xlink="http://www.w3.org/1999/xlink" width="1080" zoomAndPan="magnify" viewBox="0 0 810 809.999993" height="1080" preserveAspectRatio="xMidYMid meet" version="1.0"><rect x="-81" width="972" fill="#ffffff" y="-80.999999" height="971.999992" fill-opacity="1"/><rect x="-81" width="972" fill="#ffffff" y="-80.999999" height="971.999992" fill-opacity="1"/><path fill="#734b46" d="M 516.164062 337.707031 C 516.164062 337.707031 430.695312 457.4375 516.164062 652.394531 L 338.316406 652.394531 C 423.789062 457.4375 338.316406 337.707031 338.316406 337.707031 L 373.285156 337.707031 L 398.714844 410.878906 L 408.25 267.773438 L 434.738281 267.773438 L 449.574219 372.671875 L 513.148438 302.742188 Z M 516.164062 337.707031 " fill-opacity="1" fill-rule="nonzero"/><path fill="#5b3836" d="M 516.164062 337.707031 L 513.144531 302.742188 L 449.570312 372.671875 L 434.738281 267.773438 L 426.382812 267.773438 L 426.382812 652.390625 L 516.167969 652.390625 C 430.695312 457.433594 516.164062 337.707031 516.164062 337.707031 Z M 516.164062 337.707031 " fill-opacity="1" fill-rule="nonzero"/><path fill="#5e17eb" d="M 343.472656 230.574219 C 343.472656 212.921875 357.609375 198.609375 375.046875 198.609375 C 392.484375 198.609375 406.621094 212.921875 406.621094 230.574219 C 406.621094 212.921875 420.761719 198.609375 438.195312 198.609375 C 455.632812 198.609375 469.769531 212.921875 469.769531 230.574219 C 469.769531 261.136719 406.621094 297.699219 406.621094 297.699219 C 406.621094 297.699219 343.472656 262.863281 343.472656 230.574219 Z M 343.472656 230.574219 " fill-opacity="1" fill-rule="nonzero"/><path fill="#cb6ce6" d="M 262.21875 332.550781 C 250.710938 319.164062 252.101562 299.097656 265.324219 287.726562 C 278.546875 276.363281 298.597656 277.996094 310.105469 291.386719 C 298.597656 277.996094 299.988281 257.929688 313.210938 246.5625 C 326.433594 235.195312 346.484375 236.832031 357.992188 250.21875 C 377.914062 273.398438 353.859375 342.289062 353.859375 342.289062 C 353.859375 342.289062 283.265625 357.035156 262.21875 332.550781 Z M 262.21875 332.550781 " fill-opacity="1" fill-rule="nonzero"/><path fill="#cb6ce6" d="M 463.136719 167.886719 C 471.472656 152.324219 490.6875 146.382812 506.0625 154.617188 C 521.433594 162.847656 527.136719 182.140625 518.804688 197.703125 C 527.140625 182.140625 546.359375 176.195312 561.730469 184.433594 C 577.101562 192.664062 582.804688 211.957031 574.472656 227.519531 C 560.042969 254.464844 487.113281 256.875 487.113281 256.875 C 487.113281 256.875 447.890625 196.347656 463.136719 167.886719 Z M 463.136719 167.886719 " fill-opacity="1" fill-rule="nonzero"/><path fill="#cb6ce6" d="M 479.207031 312.304688 C 490.320312 298.589844 510.316406 296.371094 523.867188 307.347656 C 537.417969 318.324219 539.398438 338.34375 528.285156 352.058594 C 539.398438 338.34375 559.394531 336.125 572.945312 347.101562 C 586.496094 358.078125 588.476562 378.097656 577.363281 391.8125 C 558.121094 415.558594 486.027344 404.207031 486.027344 404.207031 C 486.027344 404.207031 458.882812 337.390625 479.207031 312.304688 Z M 479.207031 312.304688 " fill-opacity="1" fill-rule="nonzero"/><path fill="#5e17eb" d="M 258.980469 297.472656 C 255.796875 286.859375 261.71875 275.707031 272.210938 272.558594 C 282.707031 269.414062 293.792969 275.46875 296.976562 286.082031 C 293.789062 275.46875 299.714844 264.316406 310.207031 261.171875 C 320.699219 258.023438 331.785156 264.082031 334.972656 274.695312 C 340.484375 293.070312 309.089844 326.4375 309.089844 326.4375 C 309.089844 326.4375 264.808594 316.882812 258.980469 297.472656 Z M 258.980469 297.472656 " fill-opacity="1" fill-rule="nonzero"/><path fill="#cb6ce6" d="M 265.546875 193.527344 C 262.359375 182.910156 268.285156 171.757812 278.777344 168.613281 C 289.269531 165.46875 300.355469 171.523438 303.542969 182.136719 C 300.355469 171.523438 306.28125 160.371094 316.773438 157.226562 C 327.265625 154.082031 338.351562 160.136719 341.535156 170.75 C 347.050781 189.125 315.652344 222.492188 315.652344 222.492188 C 315.652344 222.492188 271.371094 212.9375 265.546875 193.527344 Z M 265.546875 193.527344 " fill-opacity="1" fill-rule="nonzero"/><path fill="#8c52ff" d="M 385.574219 164.714844 C 382.386719 154.101562 388.3125 142.949219 398.804688 139.800781 C 409.296875 136.65625 420.382812 142.710938 423.566406 153.324219 C 420.382812 142.710938 426.304688 131.558594 436.796875 128.414062 C 447.292969 125.269531 458.378906 131.324219 461.5625 141.9375 C 467.074219 160.3125 435.679688 193.679688 435.679688 193.679688 C 435.679688 193.679688 391.398438 184.128906 385.574219 164.714844 Z M 385.574219 164.714844 " fill-opacity="1" fill-rule="nonzero"/><path fill="#8c52ff" d="M 287.988281 437.65625 C 277.71875 433.496094 272.730469 421.894531 276.847656 411.746094 C 280.964844 401.59375 292.628906 396.742188 302.894531 400.902344 C 292.625 396.742188 287.636719 385.140625 291.753906 374.992188 C 295.871094 364.839844 307.535156 359.988281 317.800781 364.148438 C 335.585938 371.351562 341.949219 416.726562 341.949219 416.726562 C 341.949219 416.726562 306.773438 445.265625 287.988281 437.65625 Z M 287.988281 437.65625 " fill-opacity="1" fill-rule="nonzero"/><path fill="#8c52ff" d="M 343.046875 334.828125 C 339.859375 324.214844 345.78125 313.0625 356.277344 309.917969 C 366.769531 306.773438 377.855469 312.828125 381.039062 323.441406 C 377.855469 312.828125 383.777344 301.675781 394.269531 298.527344 C 404.761719 295.382812 415.851562 301.4375 419.035156 312.050781 C 424.546875 330.425781 393.152344 363.792969 393.152344 363.792969 C 393.152344 363.792969 348.871094 354.242188 343.046875 334.828125 Z M 343.046875 334.828125 " fill-opacity="1" fill-rule="nonzero"/><path fill="#8c52ff" d="M 579.71875 254.039062 C 588.1875 246.894531 600.777344 247.894531 607.835938 256.269531 C 614.894531 264.644531 613.75 277.222656 605.277344 284.371094 C 613.75 277.222656 626.339844 278.222656 633.398438 286.597656 C 640.457031 294.972656 639.3125 307.554688 630.839844 314.699219 C 616.175781 327.066406 573.066406 311.535156 573.066406 311.535156 C 573.066406 311.535156 564.226562 267.109375 579.71875 254.039062 Z M 579.71875 254.039062 " fill-opacity="1" fill-rule="nonzero"/><path fill="#5e17eb" d="M 481.671875 263.40625 C 486.777344 253.574219 498.792969 249.691406 508.511719 254.738281 C 518.234375 259.785156 521.96875 271.847656 516.867188 281.679688 C 521.972656 271.847656 533.988281 267.964844 543.707031 273.015625 C 553.429688 278.058594 557.167969 290.121094 552.0625 299.957031 C 543.222656 316.984375 497.453125 319.074219 497.453125 319.074219 C 497.453125 319.074219 472.332031 281.390625 481.671875 263.40625 Z M 481.671875 263.40625 " fill-opacity="1" fill-rule="nonzero"/></svg>